<svg xmlns="http://www.w3.org/2000/svg" xmlns:xlink="http://www.w3.org/1999/xlink" id="f283557e-a27e-4bb0-8f8b-a88aeca0a446" data-name="Layer 1" viewBox="0 0 100 100">
    <defs>
        <clipPath id="e91bedaa-448f-4677-8a9c-9eb0f12d1ef1">
            <rect width="99.999" height="99.999" fill="none" rx="12"/>
        </clipPath>
    </defs>
    <title>
        icon-mask
    </title>
    <rect width="99.999" height="99.999" fill="#333" rx="12"/>
    <g clip-path="url(#e91bedaa-448f-4677-8a9c-9eb0f12d1ef1)">
        <g>
            <path fill="none" stroke="#6fcf97" stroke-linecap="round" stroke-linejoin="round" stroke-width="6" d="M57.562,75.4h51.51a24.42,24.42,0,0,0,24.42-24.42h0a24.42,24.42,0,0,0-24.42-24.42H57.562a24.42,24.42,0,0,0-24.42,24.42h0A24.42,24.42,0,0,0,57.562,75.4Z"/>
            <rect width="59.761" height="59.761" x="19.961" y="20.119" fill="#333" stroke="#6fcf97" stroke-linecap="round" stroke-linejoin="round" stroke-width="6" rx="29.88"/>
            <path fill="#6fcf97" stroke="#6fcf97" stroke-linecap="round" stroke-linejoin="round" stroke-width="6" d="M49.45,59.409h0a9.844,9.844,0,0,0,9.844-9.845h0a9.844,9.844,0,0,0-9.844-9.845h0A9.844,9.844,0,0,0,39.6,49.564h0A9.845,9.845,0,0,0,49.45,59.409Z"/>
        </g>
    </g>
</svg>
